<?xml version="1.0" encoding="UTF-8"?> <svg xmlns="http://www.w3.org/2000/svg" viewBox="0 0 247.57 54"><defs><style>.cls-1{fill:#222f3e;}.cls-2{fill:#54a0ff;}</style></defs><title>fitforbeach</title><g id="Layer_2" data-name="Layer 2"><g id="Layer_1-2" data-name="Layer 1"><path class="cls-1" d="M75.88,28.59V33h7.78v3.12H75.88v6.12H72V25.47h12.7v3.12Z"></path><path class="cls-1" d="M87.23,25.47h3.89v16.8H87.23Z"></path><path class="cls-1" d="M98.37,28.64H93V25.47h14.64v3.17h-5.38V42.27H98.37Z"></path><path class="cls-1" d="M113.4,28.59V33h7.78v3.12H113.4v6.12h-3.89V25.47h12.7v3.12Z"></path><path class="cls-1" d="M127.93,41.43a8.35,8.35,0,0,1-3.29-3.11,8.92,8.92,0,0,1,0-8.9,8.35,8.35,0,0,1,3.29-3.11,10.38,10.38,0,0,1,9.42,0,8.57,8.57,0,0,1,0,15.12,10.38,10.38,0,0,1-9.42,0Zm7.4-2.87a4.89,4.89,0,0,0,1.89-1.91,6,6,0,0,0,0-5.56,4.89,4.89,0,0,0-1.89-1.91,5.57,5.57,0,0,0-5.37,0,4.89,4.89,0,0,0-1.89,1.91,6,6,0,0,0,0,5.56A4.89,4.89,0,0,0,130,38.56a5.57,5.57,0,0,0,5.37,0Z"></path><path class="cls-1" d="M155.4,42.27l-3.24-4.68h-3.57v4.68H144.7V25.47H152a9.46,9.46,0,0,1,3.88.74,5.76,5.76,0,0,1,2.53,2.12,5.83,5.83,0,0,1,.89,3.24,5.48,5.48,0,0,1-3.46,5.3l3.77,5.4Zm-1-12.88a4.11,4.11,0,0,0-2.66-.75h-3.17v5.85h3.17a4.06,4.06,0,0,0,2.66-.76,3,3,0,0,0,0-4.34Z"></path><path class="cls-1" d="M176.89,35.06a4.22,4.22,0,0,1,.81,2.63A3.86,3.86,0,0,1,176,41.08a8.77,8.77,0,0,1-5,1.19h-8.69V25.47h8.21a8,8,0,0,1,4.72,1.18,3.72,3.72,0,0,1,1.64,3.19,4,4,0,0,1-2.23,3.69A4.53,4.53,0,0,1,176.89,35.06ZM166.16,28.4v4H170a3.9,3.9,0,0,0,2.19-.51,1.85,1.85,0,0,0,0-3A4,4,0,0,0,170,28.4ZM173,38.84a1.73,1.73,0,0,0,.78-1.56c0-1.39-1-2.09-3.1-2.09h-4.53v4.15h4.53A4.37,4.37,0,0,0,173,38.84Z"></path><path class="cls-1" d="M193.67,39.15v3.12h-13V25.47h12.7v3.12h-8.84v3.65h7.8v3h-7.8v3.89Z"></path><path class="cls-1" d="M208.23,38.67h-7.8l-1.49,3.6h-4l7.49-16.8h3.84l7.51,16.8h-4.08Zm-1.22-3-2.67-6.43-2.66,6.43Z"></path><path class="cls-1" d="M218.17,41.44a8.29,8.29,0,0,1-3.26-3.09,9,9,0,0,1,0-9,8.29,8.29,0,0,1,3.26-3.09,9.65,9.65,0,0,1,4.67-1.12,9.84,9.84,0,0,1,3.95.77,7.85,7.85,0,0,1,3,2.21l-2.49,2.3a5.39,5.39,0,0,0-4.23-2,5.57,5.57,0,0,0-2.78.69,4.87,4.87,0,0,0-1.91,1.91,6,6,0,0,0,0,5.56,4.87,4.87,0,0,0,1.91,1.91,5.57,5.57,0,0,0,2.78.69,5.36,5.36,0,0,0,4.23-2l2.49,2.31a7.83,7.83,0,0,1-3,2.23,10,10,0,0,1-4,.77A9.63,9.63,0,0,1,218.17,41.44Z"></path><path class="cls-1" d="M247.57,25.47v16.8h-3.89V35.38h-7.63v6.89h-3.89V25.47h3.89v6.62h7.63V25.47Z"></path><path class="cls-2" d="M39.83,21.22l1.37-2.48A11.77,11.77,0,0,0,31,1.05H23A11.77,11.77,0,0,0,12.8,18.74l1.43,2.44A18.24,18.24,0,0,0,7,36.09,20.82,20.82,0,0,0,10.82,48.2,11.35,11.35,0,0,0,20.05,53H34a11.35,11.35,0,0,0,9.23-4.75A20.75,20.75,0,0,0,47,36.09,18.25,18.25,0,0,0,39.83,21.22Zm-23.39-4.6A7.57,7.57,0,0,1,23,5.27h8a7.57,7.57,0,0,1,6.54,11.35L36.2,19.05a22.59,22.59,0,0,0-18.34,0Z"></path><path class="cls-1" d="M1.05,51.89A1.06,1.06,0,1,0,2.11,53,1.05,1.05,0,0,0,1.05,51.89Z"></path><path class="cls-1" d="M53,51.89H40.86A12.21,12.21,0,0,0,44,48.81a21.69,21.69,0,0,0,4.06-12.72,19.43,19.43,0,0,0-6.21-14.53c-.22-.21-.46-.41-.7-.61l.94-1.69A12.83,12.83,0,0,0,31,0H23A12.83,12.83,0,0,0,11.89,19.27l1,1.65-.73.64A19.43,19.43,0,0,0,5.91,36.09,21.69,21.69,0,0,0,10,48.81a12.21,12.21,0,0,0,3.17,3.08H5.27a1.06,1.06,0,0,0,0,2.11H53a1.06,1.06,0,0,0,0-2.11Zm-32.9,0a10.33,10.33,0,0,1-8.37-4.3A19.64,19.64,0,0,1,8,36.09a17.34,17.34,0,0,1,5.9-13.36l2.26,3.85a1,1,0,0,0,1.44.38A1.06,1.06,0,0,0,18,25.52l-4.29-7.31A10.72,10.72,0,0,1,23,2.11h8a10.72,10.72,0,0,1,9.27,16.1v0L36.1,25.75a1,1,0,0,0,.41,1.43,1,1,0,0,0,1.43-.41l2.21-4A17.35,17.35,0,0,1,46,36.09a19.64,19.64,0,0,1-3.66,11.5A10.33,10.33,0,0,1,34,51.89Z"></path><path class="cls-1" d="M38.47,17.14A8.61,8.61,0,0,0,31,4.22H23a8.61,8.61,0,0,0-7.44,12.94L20,24.79a1.06,1.06,0,0,0,1.44.38,1.07,1.07,0,0,0,.38-1.45L19.36,19.5A21.36,21.36,0,0,1,27,18.14a21.38,21.38,0,0,1,7.73,1.39l-2.59,4.64a1,1,0,0,0,.92,1.56,1,1,0,0,0,.92-.54ZM27,16a23.27,23.27,0,0,0-8.71,1.65l-.93-1.59A6.5,6.5,0,0,1,23,6.33h8a6.5,6.5,0,0,1,5.62,9.76v0l-.88,1.59A23.3,23.3,0,0,0,27,16Z"></path><path class="cls-1" d="M41.62,32.13a1,1,0,0,0,.34-.06,1.06,1.06,0,0,0,.61-.53,1.08,1.08,0,0,0,0-.81,1.05,1.05,0,0,0-1-.71,1.07,1.07,0,0,0-.35.06,1,1,0,0,0-.6.53,1.08,1.08,0,0,0-.05.81A1.07,1.07,0,0,0,41.62,32.13Z"></path><path class="cls-1" d="M38.72,46a1.07,1.07,0,0,0,1.48-.23,16.59,16.59,0,0,0,3.25-9.88c0-.23,0-.45,0-.68a1.05,1.05,0,0,0-1.1-1,1.07,1.07,0,0,0-1,1.1c0,.19,0,.39,0,.59a14.42,14.42,0,0,1-2.84,8.63A1.08,1.08,0,0,0,38.72,46Z"></path><path class="cls-1" d="M12.66,35.84a13.42,13.42,0,0,1,1-5.24,1.06,1.06,0,0,0-.55-1.39,1.07,1.07,0,0,0-1.39.56,15.4,15.4,0,0,0-1.2,6.07,16.5,16.5,0,0,0,3.25,9.88,1.08,1.08,0,0,0,1.48.23,1.06,1.06,0,0,0,.22-1.48A14.42,14.42,0,0,1,12.66,35.84Z"></path></g></g></svg> 